<svg xmlns="http://www.w3.org/2000/svg" width="910" height="1384">
 <!-- Created with Image Occlusion Enhanced -->
 <g>
  <title>Labels</title>
 </g>
 <g>
  <title>Masks</title>
  <rect id="08956171f6af4b5f822a408e45bf97e8-ao-1" height="174.35898" width="189.74359" y="51.89739" x="90.89747" stroke="#2D2D2D" fill="#FFEBA2"/>
  <rect id="08956171f6af4b5f822a408e45bf97e8-ao-2" height="174.35898" width="243.58975" y="54.46149" x="285.76927" stroke="#2D2D2D" fill="#FFEBA2"/>
  
  <rect id="08956171f6af4b5f822a408e45bf97e8-ao-4" height="179.48718" width="194.8718" y="228.82047" x="88.33337" stroke="#2D2D2D" fill="#FFEBA2"/>
  <rect id="08956171f6af4b5f822a408e45bf97e8-ao-5" height="174.35898" width="243.58975" y="231.38457" x="285.76927" stroke="#2D2D2D" fill="#FFEBA2"/>
  <rect id="08956171f6af4b5f822a408e45bf97e8-ao-6" height="176.92308" width="374.35898" y="236.51278" x="531.92312" stroke="#2D2D2D" fill="#FFEBA2"/>
  <rect id="08956171f6af4b5f822a408e45bf97e8-ao-7" height="179.48718" width="194.8718" y="408.30765" x="85.76926" stroke="#2D2D2D" fill="#FFEBA2"/>
  <rect id="08956171f6af4b5f822a408e45bf97e8-ao-8" height="179.48718" width="246.15385" y="410.87175" x="283.20516" stroke="#2D2D2D" fill="#FFEBA2"/>
  <rect id="08956171f6af4b5f822a408e45bf97e8-ao-9" height="176.92308" width="371.79488" y="415.99996" x="531.92312" stroke="#2D2D2D" fill="#FFEBA2"/>
  <rect id="08956171f6af4b5f822a408e45bf97e8-ao-10" height="179.48718" width="192.3077" y="592.92304" x="88.33337" stroke="#2D2D2D" fill="#FFEBA2"/>
  <rect id="08956171f6af4b5f822a408e45bf97e8-ao-11" height="182.05129" width="246.15385" y="592.92304" x="285.76927" stroke="#2D2D2D" fill="#FFEBA2"/>
  <rect id="08956171f6af4b5f822a408e45bf97e8-ao-12" height="184.61539" width="369.23078" y="592.92304" x="537.05132" stroke="#2D2D2D" fill="#FFEBA2"/>
  <rect id="08956171f6af4b5f822a408e45bf97e8-ao-13" height="179.48718" width="197.4359" y="774.97432" x="85.76926" stroke="#2D2D2D" fill="#FFEBA2"/>
  <rect id="08956171f6af4b5f822a408e45bf97e8-ao-14" height="176.92308" width="243.58975" y="777.53843" x="285.76927" stroke="#2D2D2D" fill="#FFEBA2"/>
  <rect id="08956171f6af4b5f822a408e45bf97e8-ao-15" height="179.48718" width="376.92308" y="780.10253" x="534.48722" stroke="#2D2D2D" fill="#FFEBA2"/>
  <rect id="08956171f6af4b5f822a408e45bf97e8-ao-16" height="179.48718" width="197.4359" y="954.46151" x="85.76926" stroke="#2D2D2D" fill="#FFEBA2"/>
  <rect id="08956171f6af4b5f822a408e45bf97e8-ao-17" height="182.05129" width="246.15385" y="954.46151" x="283.20516" stroke="#2D2D2D" fill="#FFEBA2"/>
  <rect id="08956171f6af4b5f822a408e45bf97e8-ao-18" height="174.35898" width="248.71795" y="959.58971" x="531.92312" stroke="#2D2D2D" fill="#FFEBA2"/>
  <rect id="08956171f6af4b5f822a408e45bf97e8-ao-19" height="182.05129" width="192.3077" y="1136.51279" x="88.33337" stroke="#2D2D2D" fill="#FFEBA2"/>
  <rect id="08956171f6af4b5f822a408e45bf97e8-ao-20" height="176.92308" width="251.28206" y="1139.07689" x="283.20516" stroke="#2D2D2D" fill="#FFEBA2"/>
  <rect stroke="#2D2D2D" id="08956171f6af4b5f822a408e45bf97e8-ao-21" height="166.66667" width="210.25642" y="1139.07689" x="539.61543" fill="#FFEBA2"/>
 </g>
</svg>