<svg xmlns="http://www.w3.org/2000/svg" width="1437.9999999999998" height="786">
 <!-- Created with Image Occlusion Enhanced -->
 <g>
  <title>Labels</title>
 </g>
 <g>
  <title>Masks</title>
  <rect id="636754d63cd94aec830b8009fc0e3b72-ao-1" height="83.95062" width="155.55556" y="194.24695" x="33.60486" stroke="#2D2D2D" fill="#FFEBA2"/>
  <rect id="636754d63cd94aec830b8009fc0e3b72-ao-2" height="96.2963" width="158.0247" y="297.95066" x="29.90115" stroke="#2D2D2D" fill="#FFEBA2"/>
  <rect id="636754d63cd94aec830b8009fc0e3b72-ao-3" height="76.54321" width="138.27161" y="417.70375" x="50.88881" stroke="#2D2D2D" fill="#FFEBA2"/>
  <rect id="636754d63cd94aec830b8009fc0e3b72-ao-4" height="59.25926" width="117.28396" y="584.37043" x="123.72832" stroke="#2D2D2D" fill="#FFEBA2"/>
  <rect id="636754d63cd94aec830b8009fc0e3b72-ao-5" height="82.71605" width="144.44445" y="668.32105" x="102.74066" stroke="#2D2D2D" fill="#FFEBA2"/>
  <rect id="636754d63cd94aec830b8009fc0e3b72-ao-6" height="50.61729" width="106.17284" y="74.49386" x="395.33327" stroke="#2D2D2D" fill="#FFEBA2"/>
  <rect id="636754d63cd94aec830b8009fc0e3b72-ao-7" height="79.01235" width="182.71606" y="141.16053" x="389.16043" stroke="#2D2D2D" fill="#FFEBA2"/>
  <rect id="636754d63cd94aec830b8009fc0e3b72-ao-8" height="79.01235" width="203.70371" y="237.45683" x="410.14808" stroke="#2D2D2D" fill="#FFEBA2"/>
  <rect id="636754d63cd94aec830b8009fc0e3b72-ao-9" height="74.07408" width="198.76544" y="332.51857" x="418.79006" stroke="#2D2D2D" fill="#FFEBA2"/>
  <rect id="636754d63cd94aec830b8009fc0e3b72-ao-10" height="92.5926" width="222.22223" y="420.17289" x="411.38265" stroke="#2D2D2D" fill="#FFEBA2"/>
  <rect id="636754d63cd94aec830b8009fc0e3b72-ao-11" height="58.02469" width="133.33334" y="559.67907" x="478.04932" stroke="#2D2D2D" fill="#FFEBA2"/>
  <rect id="636754d63cd94aec830b8009fc0e3b72-ao-12" height="75.30865" width="164.19754" y="673.25932" x="465.70364" stroke="#2D2D2D" fill="#FFEBA2"/>
  <rect id="636754d63cd94aec830b8009fc0e3b72-ao-13" height="95.06173" width="180.24692" y="102.88893" x="755.82711" stroke="#2D2D2D" fill="#FFEBA2"/>
  <rect id="636754d63cd94aec830b8009fc0e3b72-ao-14" height="90.12346" width="186.41976" y="233.75313" x="759.53081" stroke="#2D2D2D" fill="#FFEBA2"/>
  <rect id="636754d63cd94aec830b8009fc0e3b72-ao-15" height="90.12346" width="208.64198" y="360.91363" x="695.33328" stroke="#2D2D2D" fill="#FFEBA2"/>
  <rect id="636754d63cd94aec830b8009fc0e3b72-ao-16" height="62.96297" width="146.91359" y="493.0124" x="700.27155" stroke="#2D2D2D" fill="#FFEBA2"/>
  <rect id="636754d63cd94aec830b8009fc0e3b72-ao-17" height="59.25926" width="144.44445" y="572.02475" x="721.25921" stroke="#2D2D2D" fill="#FFEBA2"/>
  <rect id="636754d63cd94aec830b8009fc0e3b72-ao-18" height="79.01235" width="216.04939" y="676.96302" x="647.18513" stroke="#2D2D2D" fill="#FF7E7E" class="qshape"/>
  <rect id="636754d63cd94aec830b8009fc0e3b72-ao-19" height="86.41976" width="198.76544" y="668.32105" x="1070.64194" stroke="#2D2D2D" fill="#FFEBA2"/>
  <rect id="636754d63cd94aec830b8009fc0e3b72-ao-20" height="51.85185" width="114.81482" y="559.67907" x="1057.06169" stroke="#2D2D2D" fill="#FFEBA2"/>
  <rect id="636754d63cd94aec830b8009fc0e3b72-ao-21" height="72.83951" width="120.98766" y="389.30869" x="1118.79009" stroke="#2D2D2D" fill="#FFEBA2"/>
  <rect id="636754d63cd94aec830b8009fc0e3b72-ao-22" height="97.53087" width="165.43211" y="264.61733" x="1142.24688" stroke="#2D2D2D" fill="#FFEBA2"/>
  <rect id="636754d63cd94aec830b8009fc0e3b72-ao-23" height="56.79013" width="181.48149" y="194.24695" x="1142.24688" stroke="#2D2D2D" fill="#FFEBA2"/>
  <rect id="636754d63cd94aec830b8009fc0e3b72-ao-24" height="49.38272" width="211.11112" y="141.16053" x="1129.9012" stroke="#2D2D2D" fill="#FFEBA2"/>
  <rect id="636754d63cd94aec830b8009fc0e3b72-ao-25" height="56.79013" width="138.27161" y="73.2593" x="1132.37033" stroke="#2D2D2D" fill="#FFEBA2"/>
 </g>
</svg>